<?xml version="1.0" encoding="UTF-8" standalone="yes"?><svg xmlns="http://www.w3.org/2000/svg" xmlns:xlink="http://www.w3.org/1999/xlink" height="560pt" style="width:704px;height:560px;" version="1.1" viewBox="0 0 704 560" width="704pt"><defs><filter height="300%" id="f1" width="300%" x="-1" y="-1"><feGaussianBlur result="blurOut" stdDeviation="2.0"/><feColorMatrix in="blurOut" result="blurOut2" type="matrix" values="0 0 0 0 0 0 0 0 0 0 0 0 0 0 0 0 0 0 .4 0"/><feOffset dx="4.0" dy="4.0" in="blurOut2" result="blurOut3"/><feBlend in="SourceGraphic" in2="blurOut3" mode="normal"/></filter></defs><g><rect fill="#FEFECE" filter="url(#f1)" height="48.2656" rx="12.5" ry="12.5" style="stroke: #A80036; stroke-width: 1.5;" width="218" x="243.5" y="54"/><text fill="#000000" font-family="sans-serif" font-size="12" lengthAdjust="spacingAndGlyphs" textLength="198" x="253.5" y="75.6016">Define/update certification criteria</text><text fill="#000000" font-family="sans-serif" font-size="12" font-weight="bold" lengthAdjust="spacingAndGlyphs" textLength="110" x="253.5" y="89.7344">Certification Lead</text><rect fill="#FEFECE" filter="url(#f1)" height="48.2656" rx="12.5" ry="12.5" style="stroke: #A80036; stroke-width: 1.5;" width="240" x="232.5" y="122.2656"/><text fill="#000000" font-family="sans-serif" font-size="12" lengthAdjust="spacingAndGlyphs" textLength="220" x="242.5" y="143.8672">Review impact on application portfolio</text><text fill="#000000" font-family="sans-serif" font-size="12" font-weight="bold" lengthAdjust="spacingAndGlyphs" textLength="110" x="242.5" y="158">Certification Lead</text><rect fill="#FEFECE" filter="url(#f1)" height="48.2656" rx="12.5" ry="12.5" style="stroke: #A80036; stroke-width: 1.5;" width="195" x="255" y="200.3984"/><text fill="#000000" font-family="sans-serif" font-size="12" lengthAdjust="spacingAndGlyphs" textLength="154" x="265" y="222">Review certification criteria</text><text fill="#000000" font-family="sans-serif" font-size="12" font-weight="bold" lengthAdjust="spacingAndGlyphs" textLength="175" x="265" y="236.1328">Certification Working Group</text><polygon fill="#FEFECE" filter="url(#f1)" points="352.5,10,364.5,22,352.5,34,340.5,22,352.5,10" style="stroke: #A80036; stroke-width: 1.5;"/><polygon fill="#FEFECE" filter="url(#f1)" points="302,268.6641,403,268.6641,415,280.6641,403,292.6641,302,292.6641,290,280.6641,302,268.6641" style="stroke: #A80036; stroke-width: 1.5;"/><text fill="#000000" font-family="sans-serif" font-size="11" lengthAdjust="spacingAndGlyphs" textLength="101" x="302" y="284.8213">Criteria Approved?</text><text fill="#000000" font-family="sans-serif" font-size="11" lengthAdjust="spacingAndGlyphs" textLength="17" x="415" y="278.3438">NO</text><polygon fill="#A80036" points="480.5,180.3984,484.5,170.3984,488.5,180.3984,484.5,176.3984" style="stroke: #A80036; stroke-width: 1.0;"/><polygon fill="#FBFB77" filter="url(#f1)" points="460,337.7617,460,378.3828,605,378.3828,605,347.7617,595,337.7617,460,337.7617" style="stroke: #A80036; stroke-width: 1.0;"/><polygon fill="#FBFB77" points="460,337.7617,460,354.0723,440,358.0723,460,362.0723,460,378.3828,605,378.3828,605,347.7617,595,337.7617,460,337.7617" style="stroke: #A80036; stroke-width: 1.0;"/><line style="stroke: #A80036; stroke-width: 1.0;" x1="595" x2="595" y1="337.7617" y2="347.7617"/><line style="stroke: #A80036; stroke-width: 1.0;" x1="595" x2="605" y1="347.7617" y2="347.7617"/><text fill="#000000" font-family="sans-serif" font-size="13" lengthAdjust="spacingAndGlyphs" textLength="124" x="466" y="355.3301">Mobile Certification</text><text fill="#000000" font-family="sans-serif" font-size="13" lengthAdjust="spacingAndGlyphs" textLength="46" x="466" y="370.6406">Criteria</text><rect fill="#FEFECE" filter="url(#f1)" height="48.2656" rx="12.5" ry="12.5" style="stroke: #A80036; stroke-width: 1.5;" width="175" x="265" y="333.9395"/><text fill="#000000" font-family="sans-serif" font-size="12" lengthAdjust="spacingAndGlyphs" textLength="155" x="275" y="355.541">Publish certification criteria</text><text fill="#000000" font-family="sans-serif" font-size="12" font-weight="bold" lengthAdjust="spacingAndGlyphs" textLength="110" x="275" y="369.6738">Certification Lead</text><polygon fill="#FBFB77" filter="url(#f1)" points="10,460.5938,10,501.2148,131,501.2148,131,470.5938,121,460.5938,10,460.5938" style="stroke: #A80036; stroke-width: 1.0;"/><polygon fill="#FBFB77" points="10,460.5938,10,501.2148,131,501.2148,131,484.9043,151,480.9043,131,476.9043,131,470.5938,121,460.5938,10,460.5938" style="stroke: #A80036; stroke-width: 1.0;"/><line style="stroke: #A80036; stroke-width: 1.0;" x1="121" x2="121" y1="460.5938" y2="470.5938"/><line style="stroke: #A80036; stroke-width: 1.0;" x1="121" x2="131" y1="470.5938" y2="470.5938"/><text fill="#000000" font-family="sans-serif" font-size="13" lengthAdjust="spacingAndGlyphs" textLength="79" x="16" y="478.1621">Gate Change</text><text fill="#000000" font-family="sans-serif" font-size="13" lengthAdjust="spacingAndGlyphs" textLength="100" x="16" y="493.4727">Communication</text><rect fill="#FEFECE" filter="url(#f1)" height="90.6641" rx="12.5" ry="12.5" style="stroke: #A80036; stroke-width: 1.5;" width="130" x="151" y="435.5723"/><text fill="#000000" font-family="sans-serif" font-size="12" lengthAdjust="spacingAndGlyphs" textLength="79" x="161" y="457.1738">Update Gates</text><ellipse cx="166.5" cy="466.3379" fill="#000000" rx="2.5" ry="2.5" style="stroke: #000000; stroke-width: 0.0;"/><text fill="#000000" font-family="sans-serif" font-size="12" lengthAdjust="spacingAndGlyphs" textLength="35" x="171" y="471.3066">Intake</text><ellipse cx="166.5" cy="480.4707" fill="#000000" rx="2.5" ry="2.5" style="stroke: #000000; stroke-width: 0.0;"/><text fill="#000000" font-family="sans-serif" font-size="12" lengthAdjust="spacingAndGlyphs" textLength="45" x="171" y="485.4395">Funding</text><ellipse cx="166.5" cy="494.6035" fill="#000000" rx="2.5" ry="2.5" style="stroke: #000000; stroke-width: 0.0;"/><text fill="#000000" font-family="sans-serif" font-size="12" lengthAdjust="spacingAndGlyphs" textLength="76" x="171" y="499.5723">Development</text><text fill="#000000" font-family="sans-serif" font-size="12" font-weight="bold" lengthAdjust="spacingAndGlyphs" textLength="110" x="161" y="513.7051">Certification Lead</text><polygon fill="#FBFB77" filter="url(#f1)" points="573,426.0273,573,466.6484,695,466.6484,695,436.0273,685,426.0273,573,426.0273" style="stroke: #A80036; stroke-width: 1.0;"/><polygon fill="#FBFB77" points="573,426.0273,573,442.3379,553,446.3379,573,450.3379,573,466.6484,695,466.6484,695,436.0273,685,426.0273,573,426.0273" style="stroke: #A80036; stroke-width: 1.0;"/><line style="stroke: #A80036; stroke-width: 1.0;" x1="685" x2="685" y1="426.0273" y2="436.0273"/><line style="stroke: #A80036; stroke-width: 1.0;" x1="685" x2="695" y1="436.0273" y2="436.0273"/><text fill="#000000" font-family="sans-serif" font-size="13" lengthAdjust="spacingAndGlyphs" textLength="101" x="579" y="443.5957">Portfolio Impact</text><text fill="#000000" font-family="sans-serif" font-size="13" lengthAdjust="spacingAndGlyphs" textLength="76" x="579" y="458.9063">Assessment</text><rect fill="#FEFECE" filter="url(#f1)" height="48.2656" rx="12.5" ry="12.5" style="stroke: #A80036; stroke-width: 1.5;" width="244" x="309" y="422.2051"/><text fill="#000000" font-family="sans-serif" font-size="12" lengthAdjust="spacingAndGlyphs" textLength="224" x="319" y="443.8066">Review Production Application Portfolio</text><text fill="#000000" font-family="sans-serif" font-size="12" font-weight="bold" lengthAdjust="spacingAndGlyphs" textLength="110" x="319" y="457.9395">Certification Lead</text><rect fill="#AAAAAA" filter="url(#f1)" height="34.1328" rx="12.5" ry="12.5" style="stroke: #A80036; stroke-width: 1.5;" width="231" x="315.5" y="505.4707"/><text fill="#000000" font-family="sans-serif" font-size="12" font-weight="bold" lengthAdjust="spacingAndGlyphs" textLength="35" x="325.5" y="527.0723">CP2.0</text><text fill="#000000" font-family="sans-serif" font-size="12" lengthAdjust="spacingAndGlyphs" textLength="172" x="364.5" y="527.0723">- Perform Compliance Review</text><line style="stroke: #A80036; stroke-width: 1.5;" x1="352.5" x2="352.5" y1="102.2656" y2="122.2656"/><polygon fill="#A80036" points="348.5,112.2656,352.5,122.2656,356.5,112.2656,352.5,116.2656" style="stroke: #A80036; stroke-width: 1.0;"/><line style="stroke: #A80036; stroke-width: 1.5;" x1="352.5" x2="352.5" y1="170.5313" y2="200.3984"/><polygon fill="#A80036" points="348.5,190.3984,352.5,200.3984,356.5,190.3984,352.5,194.3984" style="stroke: #A80036; stroke-width: 1.0;"/><line style="stroke: #A80036; stroke-width: 1.5;" x1="352.5" x2="352.5" y1="34" y2="54"/><polygon fill="#A80036" points="348.5,44,352.5,54,356.5,44,352.5,48" style="stroke: #A80036; stroke-width: 1.0;"/><line style="stroke: #A80036; stroke-width: 1.5;" x1="415" x2="484.5" y1="280.6641" y2="280.6641"/><line style="stroke: #A80036; stroke-width: 1.5;" x1="484.5" x2="484.5" y1="22" y2="280.6641"/><line style="stroke: #A80036; stroke-width: 1.5;" x1="364.5" x2="484.5" y1="22" y2="22"/><polygon fill="#A80036" points="374.5,18,364.5,22,374.5,26,370.5,22" style="stroke: #A80036; stroke-width: 1.0;"/><line style="stroke: #A80036; stroke-width: 1.5;" x1="352.5" x2="352.5" y1="248.6641" y2="268.6641"/><polygon fill="#A80036" points="348.5,258.6641,352.5,268.6641,356.5,258.6641,352.5,262.6641" style="stroke: #A80036; stroke-width: 1.0;"/><line style="stroke: #A80036; stroke-width: 1.5;" x1="352.5" x2="352.5" y1="292.6641" y2="333.9395"/><polygon fill="#A80036" points="348.5,323.9395,352.5,333.9395,356.5,323.9395,352.5,327.9395" style="stroke: #A80036; stroke-width: 1.0;"/><text fill="#000000" font-family="sans-serif" font-size="11" lengthAdjust="spacingAndGlyphs" textLength="19" x="356.5" y="314.1191">YES</text><line style="stroke: #A80036; stroke-width: 1.5;" x1="431" x2="431" y1="470.4707" y2="505.4707"/><polygon fill="#A80036" points="427,495.4707,431,505.4707,435,495.4707,431,499.4707" style="stroke: #A80036; stroke-width: 1.0;"/><line style="stroke: #A80036; stroke-width: 1.5;" x1="216" x2="216" y1="402.2051" y2="435.5723"/><polygon fill="#A80036" points="212,425.5723,216,435.5723,220,425.5723,216,429.5723" style="stroke: #A80036; stroke-width: 1.0;"/><line style="stroke: #A80036; stroke-width: 1.5;" x1="431" x2="431" y1="402.2051" y2="422.2051"/><polygon fill="#A80036" points="427,412.2051,431,422.2051,435,412.2051,431,416.2051" style="stroke: #A80036; stroke-width: 1.0;"/><line style="stroke: #A80036; stroke-width: 1.5;" x1="216" x2="431" y1="402.2051" y2="402.2051"/><line style="stroke: #A80036; stroke-width: 1.5;" x1="352.5" x2="352.5" y1="559.6035" y2="559.6035"/><line style="stroke: #A80036; stroke-width: 1.5;" x1="352.5" x2="352.5" y1="382.2051" y2="402.2051"/><polygon fill="#A80036" points="348.5,392.2051,352.5,402.2051,356.5,392.2051,352.5,396.2051" style="stroke: #A80036; stroke-width: 1.0;"/></g></svg>